<svg width="113" height="131" viewBox="0 0 113 131" fill="none" xmlns="http://www.w3.org/2000/svg">
<path d="M68.1571 30.5752V0H0V30.5752H68.1571ZM39.3831 25.4068H13.8695V17.6031H39.409L39.3831 25.4068Z" fill="#35BAF4"/>
<path d="M50.4062 100.374V94.7447H57.8844V86.9666H50.4062V81.9262H54.831C62.1798 81.9262 68.1571 76.0158 68.1571 68.7494V38.3789H0V68.7494C0 76.0158 5.97733 81.9262 13.3261 81.9262H17.7509V86.9666H10.2727V94.7447H17.7509V100.374H50.4062ZM13.8695 43.5473H39.409V51.3254H13.8695V43.5473ZM13.8695 56.5193H39.409V64.2975H13.8695V56.5193Z" fill="#35BAF4"/>
<path d="M96.7757 50.9673C87.8227 50.9673 80.5516 58.1569 80.5516 67.0097V102.19C80.5516 113.781 71.0034 123.222 59.2816 123.222C49.6558 123.222 41.5048 116.851 38.8914 108.152H30.7664C33.561 121.201 45.2827 131 59.2816 131C75.3505 131 88.4178 118.079 88.4178 102.19V67.0097C88.4178 62.4554 92.1698 58.7454 96.7757 58.7454C101.382 58.7454 105.134 62.4554 105.134 67.0097V102.19H113V67.0097C113 58.1569 105.729 50.9673 96.7757 50.9673Z" fill="#35BAF4"/>
</svg>
