<svg width="130" height="130" viewBox="0 0 130 130" fill="none" xmlns="http://www.w3.org/2000/svg">
<g clip-path="url(#clip0_582_1072)">
<path d="M123.193 6.83008C118.775 2.41211 112.934 0 106.712 0C100.49 0 94.6234 2.41211 90.23 6.83008L70.4468 26.6094L26.5887 70.459L6.80553 90.2383C-2.28609 99.3281 -2.28609 114.105 6.80553 123.195C11.2244 127.588 17.0653 130 23.2873 130C29.5092 130 35.3756 127.588 39.769 123.17L59.5521 103.391L103.41 59.541L123.193 39.7617C132.285 30.6973 132.285 15.9199 123.193 6.83008ZM47.6416 71.0176L41.0896 64.4668L46.5496 59.0078L53.1017 65.5586L47.6416 71.0176ZM65.5455 88.918L58.9934 82.3672L64.4535 76.9082L71.0055 83.459L65.5455 88.918ZM65.5455 71.0176L58.9934 64.4668L64.4535 59.0078L71.0055 65.5586L65.5455 71.0176ZM65.5455 53.0918L58.9934 46.541L64.4535 41.082L71.0055 47.6328L65.5455 53.0918ZM83.4748 71.0176L76.9227 64.4668L82.3828 59.0078L88.9348 65.5586L83.4748 71.0176Z" fill="#35BAF4"/>
<path d="M39.769 6.83008C35.3756 2.41211 29.5092 0 23.2873 0C17.0653 0 11.2244 2.41211 6.80553 6.83008C-2.28609 15.9199 -2.28609 30.6973 6.80553 39.7871L26.5887 59.5664L59.5522 26.6094L39.769 6.83008Z" fill="#35BAF4"/>
<path d="M123.194 90.2129L103.411 70.4336L70.4473 103.416L90.2304 123.195C94.6239 127.588 100.49 130.025 106.712 130.025C112.934 130.025 118.8 127.613 123.194 123.195C132.286 114.08 132.286 99.3027 123.194 90.2129Z" fill="#35BAF4"/>
</g>
<defs>
<clipPath id="clip0_582_1072">
<rect width="130" height="130" fill="white"/>
</clipPath>
</defs>
</svg>
