<svg width="131" height="131" viewBox="0 0 131 131" fill="none" xmlns="http://www.w3.org/2000/svg">
<path d="M52.0417 75.0434C58.2079 75.0434 64.3741 72.6895 69.0564 68.0072L74.6085 62.4551L40.5792 28.4258L35.0271 33.9779C30.4728 38.5322 27.9653 44.5705 27.9653 50.9926C27.9653 57.4147 30.4728 63.4529 35.0271 68.0072C39.7093 72.6895 45.8755 75.0434 52.0417 75.0434Z" fill="#35BAF4"/>
<path d="M90.4207 46.643L95.9728 41.0909C100.527 36.5366 103.035 30.4983 103.035 24.0762C103.035 17.6542 100.527 11.6159 95.9728 7.06157C86.5828 -2.32847 71.308 -2.32847 61.9435 7.06157L56.3914 12.6137L90.4207 46.643Z" fill="#35BAF4"/>
<path d="M50.893 18.1051L46.0986 22.8994L80.1293 56.9301L84.9237 52.1358L50.893 18.1051Z" fill="#35BAF4"/>
<path d="M123.913 77.4229L77.4231 123.887C83.2311 128.492 90.3952 131 97.9174 131C106.77 131 115.06 127.546 121.329 121.303C133.303 109.329 134.147 90.3949 123.913 77.4229Z" fill="#35BAF4"/>
<path d="M118.412 71.8961C112.604 67.2906 105.44 64.7832 97.9173 64.7832C89.0645 64.7832 80.7747 68.2373 74.5062 74.4803C68.2632 80.7232 64.8091 89.0387 64.8091 97.8914C64.8091 105.414 67.3165 112.578 71.922 118.386L118.412 71.8961Z" fill="#35BAF4"/>
<path d="M7.93164 84.843C2.81445 89.9602 0 96.7405 0 103.956C0 111.171 2.81445 117.977 7.93164 123.068C13.2023 128.339 20.1361 130.974 27.0443 130.974C33.9781 130.974 40.8863 128.339 46.157 123.068C56.6984 112.527 56.6984 95.3588 46.157 84.8174C35.6156 74.276 18.473 74.276 7.93164 84.843ZM40.349 107.845H30.9334V117.26H23.1553V107.845H13.7396V100.067H23.1553V90.651H30.9334V100.067H40.349V107.845Z" fill="#35BAF4"/>
</svg>
