<svg width="104" height="132" viewBox="0 0 104 132" fill="none" xmlns="http://www.w3.org/2000/svg">
<path d="M73.5641 30.5766V0H0V132H104V30.5766H73.5641ZM43.3077 29.2617V37.0992H34.2308V46.2258H26.4359V37.0992H17.359V29.2617H26.4359V20.1352H34.2308V29.2617H43.3077ZM84.0256 70.3055V78.143H19.9487V70.3055H84.0256ZM65.3846 65.0977V57.2344H84.0256V65.0719H65.3846V65.0977ZM19.9487 104.285V96.4477H84.0256V104.285H19.9487ZM67.2308 109.519V117.356H36.7692V109.519H67.2308ZM19.9487 91.2141V83.3766H38.5897V91.2141H19.9487ZM46.4103 91.2141V83.3766H84.0513V91.2141H46.4103ZM57.5897 65.0977H19.9487V57.2344H57.5897V65.0977ZM84.0256 35.8102V43.6477H53.5641V35.8102H84.0256ZM53.5641 30.5766V22.7391H66.3077V30.5766H53.5641Z" fill="#35BAF4"/>
<path d="M81.3845 22.7391H104L81.3845 0V22.7391Z" fill="#35BAF4"/>
</svg>
