<svg width="111" height="132" viewBox="0 0 111 132" fill="none" xmlns="http://www.w3.org/2000/svg">
<g clip-path="url(#clip0_582_1085)">
<path d="M55.5 89.2354C52.1578 89.2354 48.912 88.8809 45.7305 88.2363L55.5 114.372L65.2696 88.2363C62.1202 88.8809 58.8422 89.2354 55.5 89.2354Z" fill="#35BAF4"/>
<path d="M92.7787 71.6074C89.4686 75.6035 85.5479 79.0518 81.1773 81.8232L86.3192 86.6895L79.1206 95.8418L83.8768 102.48L59.3887 119.561V132.032H111.032V97.8721C111 85.8516 103.416 75.5713 92.7787 71.6074Z" fill="#35BAF4"/>
<path d="M27.1555 102.48L31.9117 95.8418L24.681 86.6895L29.8228 81.8232C25.4201 79.0518 21.4994 75.6035 18.2215 71.6074C7.61639 75.5713 0 85.8516 0 97.8721V132H51.6436V119.528L27.1555 102.48ZM32.458 119.625H12.5976V111.891H32.458V119.625Z" fill="#35BAF4"/>
<path d="M55.5 0C39.0139 0 24.7774 9.89356 18.4143 24.1055C20.6639 24.7822 23.0098 25.1045 25.388 25.1045C31.3332 25.1045 37.0857 22.9453 41.5848 19.0459L44.2843 16.6934L46.8231 19.2393C52.9291 25.3945 61.0918 28.7783 69.7366 28.7783C77.5136 28.7783 85.0657 25.9746 90.9146 20.8506C83.9731 8.41113 70.7007 0 55.5 0Z" fill="#35BAF4"/>
<path d="M94.1605 28.1982C87.1869 33.5801 78.6064 36.5127 69.7688 36.5127C60.1921 36.5127 51.1295 33.1611 43.8988 27.0381C38.4998 30.8086 32.0404 32.8389 25.3881 32.8389C22.1744 32.8389 18.9929 32.3555 15.9399 31.4209C15.2329 34.418 14.8794 37.5439 14.8794 40.7344C14.8794 63.1963 33.1009 81.4687 55.5001 81.4687C77.8994 81.4687 96.1209 63.1963 96.1209 40.7344C96.1209 36.3838 95.446 32.1621 94.1605 28.1982Z" fill="#35BAF4"/>
</g>
<defs>
<clipPath id="clip0_582_1085">
<rect width="111" height="132" fill="white"/>
</clipPath>
</defs>
</svg>
