<svg width="35" height="35" viewBox="0 0 35 35" fill="none" xmlns="http://www.w3.org/2000/svg">
<g clip-path="url(#clip0_582_1139)">
<path d="M0 16.5423C0.0683594 16.0126 0.111084 15.4828 0.196533 14.953C1.23047 8.78355 4.59717 4.3231 10.2112 1.59727C12.7661 0.358257 15.509 -0.137349 18.3459 0.0250046C23.5327 0.324077 27.7881 2.50303 31.1121 6.50206C31.377 6.81822 31.377 7.10874 31.1377 7.31382C30.8899 7.52745 30.5908 7.47618 30.3174 7.14292C28.5999 5.04087 26.5063 3.42588 24.0112 2.35777C21.5588 1.30674 19.0039 0.870952 16.3464 1.06748C12.0142 1.40074 8.35693 3.16099 5.40894 6.33116C2.99072 8.92881 1.56372 12.005 1.16211 15.534C0.640869 20.1227 1.79443 24.2584 4.69971 27.8558C7.48535 31.2909 11.0913 33.316 15.4919 33.8458C20.0635 34.3927 24.1992 33.2391 27.7881 30.3509C31.2488 27.5653 33.2825 23.9337 33.8293 19.5074C34.2822 15.8673 33.5645 12.4408 31.7444 9.25352C31.676 9.13389 31.6077 9.01426 31.5564 8.89463C31.4368 8.6212 31.5137 8.39903 31.7615 8.24522C31.9836 8.09996 32.2827 8.17686 32.4451 8.42466C32.6501 8.74937 32.8467 9.09117 33.0176 9.43296C34.0942 11.5179 34.7351 13.7396 34.9231 16.0809C34.9316 16.2176 34.9658 16.3458 34.9915 16.4825C34.9915 17.1661 34.9915 17.8497 34.9915 18.5333C34.9402 18.9947 34.8889 19.4562 34.8291 19.9176C34.342 23.3697 32.9663 26.4203 30.6592 29.035C27.9419 32.1112 24.5667 34.0338 20.5078 34.743C19.8499 34.8627 19.1833 34.9225 18.5168 35.0165C17.8333 35.0165 17.1497 35.0165 16.4661 35.0165C16.3806 34.9994 16.2952 34.9652 16.2012 34.9566C14.1162 34.8199 12.0996 34.3414 10.2197 33.4271C4.60571 30.6842 1.23047 26.2323 0.196533 20.0458C0.111084 19.5245 0.0683594 18.9862 0 18.4564C0 17.8241 0 17.1832 0 16.5423Z" fill="#35BCF4"/>
<path d="M26.4893 15.8425C26.7029 15.8425 26.8738 15.6716 26.8738 15.458V11.2625C26.8738 11.0061 26.6602 10.7925 26.4038 10.7925H8.59619C8.33984 10.7925 8.12622 11.0061 8.12622 11.2625V20.0295C8.12622 20.2432 8.29712 20.4141 8.51074 20.4141C8.72437 20.4141 8.89526 20.2432 8.89526 20.0295V11.9204L15.1929 16.3467L8.89526 22.9092V21.2258C8.89526 21.0122 8.72437 20.8413 8.51074 20.8413C8.29712 20.8413 8.12622 21.0122 8.12622 21.2258V23.738C8.12622 23.9944 8.33984 24.208 8.59619 24.208H26.4038C26.6602 24.208 26.8738 23.9944 26.8738 23.738V16.7825C26.8738 16.5688 26.7029 16.3979 26.4893 16.3979C26.2756 16.3979 26.1047 16.5688 26.1047 16.7825V22.9092L19.8071 16.3467L26.1047 11.9204V15.458C26.1047 15.6716 26.2842 15.8425 26.4893 15.8425ZM25.5493 23.439H9.45068L15.8252 16.7996L17.2693 17.8164C17.3376 17.8677 17.4146 17.8848 17.4915 17.8848C17.4915 17.8848 17.4915 17.8848 17.5 17.8848C17.5 17.8848 17.5 17.8848 17.5085 17.8848C17.5854 17.8848 17.6624 17.8591 17.7307 17.8164L19.1748 16.7996L25.5493 23.439ZM17.5 17.0388L9.71558 11.5701H25.2844L17.5 17.0388Z" fill="#35BCF4"/>
</g>
<defs>
<clipPath id="clip0_582_1139">
<rect width="35" height="35" fill="white"/>
</clipPath>
</defs>
</svg>
