<svg width="24" height="40" viewBox="0 0 24 40" fill="none" xmlns="http://www.w3.org/2000/svg">
<path d="M4.76777 1.23223C3.79146 0.255922 2.20854 0.255922 1.23223 1.23223C0.255922 2.20854 0.255922 3.79146 1.23223 4.76777L4.76777 1.23223ZM20 20L21.7678 21.7678L23.5355 20L21.7678 18.2322L20 20ZM1.23223 35.2322C0.255922 36.2085 0.255922 37.7915 1.23223 38.7678C2.20854 39.7441 3.79146 39.7441 4.76777 38.7678L1.23223 35.2322ZM1.23223 4.76777L18.2322 21.7678L21.7678 18.2322L4.76777 1.23223L1.23223 4.76777ZM18.2322 18.2322L1.23223 35.2322L4.76777 38.7678L21.7678 21.7678L18.2322 18.2322Z" fill="#35BCF4"/>
</svg>
