<svg width="35" height="35" viewBox="0 0 35 35" fill="none" xmlns="http://www.w3.org/2000/svg">
<g clip-path="url(#clip0_582_1305)">
<path d="M35 18.457C34.9316 18.9868 34.8889 19.5166 34.8035 20.0464C33.7695 26.2244 30.4028 30.6763 24.7888 33.4106C22.2339 34.6497 19.491 35.1453 16.6541 34.9829C11.4673 34.6838 7.21191 32.5049 3.88794 28.5059C3.62305 28.1897 3.62305 27.8992 3.8623 27.6941C4.11011 27.4805 4.40918 27.5317 4.68262 27.865C6.40015 29.967 8.49365 31.582 10.9888 32.6502C13.4412 33.7012 15.9961 34.137 18.6536 33.9404C22.9858 33.6157 26.6345 31.8555 29.5825 28.6853C32.0007 26.0877 33.4277 23.0115 33.8293 19.4824C34.3506 14.8938 33.197 10.7581 30.2832 7.16065C27.5146 3.71704 23.9001 1.68335 19.4995 1.16211C14.928 0.615234 10.7922 1.7688 7.20337 4.65698C3.74268 7.44263 1.70898 11.0742 1.16211 15.5005C0.709229 19.1406 1.427 22.5586 3.24707 25.7459C3.31543 25.8655 3.38379 25.9851 3.43506 26.1047C3.55469 26.3782 3.47778 26.6003 3.22998 26.7542C3.00781 26.8994 2.70874 26.8225 2.54639 26.5747C2.34131 26.25 2.14478 25.9082 1.97388 25.5664C0.897217 23.4814 0.256348 21.2683 0.0683594 18.927C0.0598145 18.7903 0.0256348 18.6621 0 18.5254C0 17.8418 0 17.1582 0 16.4746C0.0512695 16.0132 0.102539 15.5518 0.162354 15.0903C0.649414 11.6467 2.03369 8.59619 4.33228 5.98145C7.04956 2.90527 10.4248 0.982666 14.4836 0.273438C15.1416 0.153809 15.8081 0.0854492 16.4746 0C17.1582 0 17.8418 0 18.5254 0C18.6108 0.0170898 18.6963 0.0512695 18.7903 0.0598145C20.8752 0.196533 22.8918 0.675049 24.7717 1.58936C30.4028 4.32373 33.7695 8.77564 34.8035 14.9622C34.8889 15.4834 34.9316 16.0217 35 16.5515C35 17.1838 35 17.8162 35 18.457Z" fill="#35BCF4"/>
<path d="M9.75835 11.9888C9.73272 9.76709 11.3733 8.33154 13.501 8.63061C14.0308 8.70752 14.5606 8.76733 15.0818 8.87841C16.0303 9.07495 16.6712 9.83545 16.731 10.801C16.7566 11.2795 16.7737 11.7581 16.8079 12.2366C16.8506 12.7065 16.6797 13.0483 16.3038 13.3218C15.7996 13.6892 15.304 14.0823 14.7999 14.4497C14.5179 14.6548 14.4324 14.894 14.5777 15.2187C14.8682 15.8767 15.1502 16.5261 15.4407 17.1841C15.4749 17.2524 15.5176 17.3208 15.5518 17.3977C15.7313 17.7566 15.68 18.0471 15.4065 18.2009C15.1331 18.3547 14.834 18.2607 14.6631 17.8933C14.2786 17.073 13.9112 16.2356 13.5694 15.3982C13.4839 15.1931 13.4839 14.9282 13.501 14.6975C13.5438 14.2617 13.783 13.937 14.1248 13.6807C14.6119 13.3218 15.0989 12.9629 15.5689 12.5869C15.68 12.5015 15.7569 12.3135 15.7654 12.1768C15.774 11.7581 15.7313 11.3394 15.7142 10.9121C15.6885 10.408 15.3467 9.96362 14.8682 9.88671C14.2273 9.78418 13.5865 9.69018 12.9371 9.656C11.7408 9.60473 10.8094 10.4934 10.7923 11.6897C10.7837 13.356 11.1426 14.9624 11.7151 16.5261C12.6893 19.2007 14.2615 21.4736 16.4319 23.3193C17.9358 24.6011 19.6277 25.5837 21.4991 26.2246C23.0115 26.7373 24.2505 25.917 24.4642 24.302C24.524 23.8747 24.5838 23.4475 24.6436 23.0203C24.7205 22.4905 24.43 21.9863 23.9258 21.7983C23.4986 21.6445 23.0713 21.4822 22.6356 21.354C22.533 21.3198 22.3707 21.3711 22.2767 21.4309C21.7896 21.7812 21.3111 22.1572 20.824 22.5076C20.1575 22.9946 19.5594 22.9861 18.8758 22.5161C17.9102 21.8411 17.0386 21.0549 16.2696 20.1663C15.9961 19.8415 15.9791 19.5425 16.2269 19.3289C16.4661 19.1238 16.7566 19.1665 17.0301 19.4827C17.7393 20.303 18.5425 21.0293 19.4312 21.6531C19.7901 21.9094 19.9183 21.9094 20.2857 21.6445C20.7813 21.2771 21.2684 20.9097 21.7554 20.5337C22.1229 20.2517 22.4988 20.1833 22.9346 20.3628C23.396 20.5508 23.8831 20.6875 24.3445 20.8669C25.2161 21.2002 25.7801 22.1145 25.669 23.0373C25.6006 23.5757 25.5323 24.1226 25.4297 24.6609C25.0367 26.8484 23.1055 27.9421 21.0206 27.156C16.4918 25.447 13.2105 22.405 11.2024 18.0044C10.3309 16.0561 9.85235 14.0139 9.75835 11.9888Z" fill="#35BCF4"/>
</g>
<defs>
<clipPath id="clip0_582_1305">
<rect width="35" height="35" fill="white"/>
</clipPath>
</defs>
</svg>
