<svg width="24" height="40" viewBox="0 0 24 40" fill="none" xmlns="http://www.w3.org/2000/svg">
<path d="M19.2322 38.7678C20.2085 39.7441 21.7915 39.7441 22.7678 38.7678C23.7441 37.7915 23.7441 36.2085 22.7678 35.2322L19.2322 38.7678ZM4 20L2.23223 18.2322L0.464465 20L2.23223 21.7678L4 20ZM22.7678 4.76776C23.7441 3.79145 23.7441 2.20854 22.7678 1.23223C21.7915 0.25592 20.2085 0.25592 19.2322 1.23223L22.7678 4.76776ZM22.7678 35.2322L5.76777 18.2322L2.23223 21.7678L19.2322 38.7678L22.7678 35.2322ZM5.76777 21.7678L22.7678 4.76776L19.2322 1.23223L2.23223 18.2322L5.76777 21.7678Z" fill="#35BCF4"/>
</svg>
