<svg width="11" height="10" viewBox="0 0 11 10" fill="none" xmlns="http://www.w3.org/2000/svg">
<path d="M4.58671 1.40421C4.81122 0.713224 5.78878 0.713224 6.01329 1.40421L6.47667 2.83035C6.64402 3.34538 7.12396 3.69408 7.66549 3.69408H9.16503C9.89157 3.69408 10.1937 4.62379 9.60587 5.05084L8.39272 5.93225C7.95461 6.25055 7.77129 6.81476 7.93863 7.32979L8.40201 8.75593C8.62653 9.44691 7.83566 10.0215 7.24788 9.59445L6.03473 8.71305C5.59662 8.39475 5.00338 8.39475 4.56527 8.71305L3.35212 9.59445C2.76434 10.0215 1.97347 9.44691 2.19799 8.75593L2.66137 7.32979C2.82871 6.81476 2.64539 6.25055 2.20728 5.93225L0.994132 5.05084C0.406347 4.62379 0.708428 3.69408 1.43497 3.69408H2.9345C3.47604 3.69408 3.95598 3.34538 4.12333 2.83035L4.58671 1.40421Z" fill="#F4D805" stroke="white" stroke-width="0.5"/>
</svg>
