<svg width="91" height="91" viewBox="0 0 91 91" fill="none" xmlns="http://www.w3.org/2000/svg">
<g clip-path="url(#clip0_582_1283)">
<path d="M69.4869 91C53.4359 91 37.385 91 21.3341 91C19.5656 90.6195 17.7523 90.4181 16.0733 89.8585C6.26816 86.5686 0.0447868 77.9296 0.0224006 67.5897C1.43796e-05 52.8856 0.0224006 38.1591 0.0224006 23.455C1.43796e-05 20.1426 0.537284 16.8974 1.99239 13.8984C6.33532 4.83419 13.5885 0.134241 23.6175 0.0670991C38.2133 -0.0448044 52.8091 0.0223377 67.4049 0.0670991C69.0839 0.0670991 70.8076 0.179003 72.4195 0.559475C81.7097 2.7304 87.6869 8.43749 90.2613 17.636C90.5971 18.8445 90.7538 20.1202 90.9776 21.3735C90.9776 37.4877 90.9776 53.5794 90.9776 69.6935C90.8657 70.3202 90.7538 70.9692 90.6418 71.5959C89.0524 80.1229 84.2394 86.0762 76.2475 89.3438C74.1208 90.1943 71.7479 90.4628 69.4869 91ZM45.3993 89.5676C52.7196 89.5676 60.0399 89.5676 67.3378 89.5676C69.7779 89.5676 72.1956 89.2766 74.5014 88.4933C83.7245 85.3376 89.5225 77.2806 89.5449 67.545C89.5673 52.8632 89.5449 38.1815 89.5449 23.4773C89.5449 21.105 89.2315 18.755 88.4704 16.4945C85.3363 7.27369 77.2549 1.47708 67.5169 1.4547C52.8315 1.43232 38.1461 1.4547 23.4384 1.4547C21.0655 1.4547 18.7149 1.76803 16.4539 2.52898C7.32031 5.6399 1.47751 13.6522 1.45512 23.2983C1.41035 38.0919 1.43273 52.908 1.45512 67.7016C1.45512 72.3344 2.73113 76.5868 5.46225 80.3467C9.96189 86.5238 16.1181 89.5228 23.7294 89.5452C30.9602 89.5676 38.1909 89.5676 45.3993 89.5676Z" fill="#35BCF4"/>
<path d="M4.27586 45.4553C4.27586 38.7411 4.27586 32.0045 4.27586 25.2902C4.27586 15.2637 10.835 7.00519 20.5954 4.76712C22.0505 4.43141 23.5952 4.31951 25.095 4.31951C38.5939 4.29713 52.1152 4.2076 65.6141 4.34189C71.1659 4.38665 76.1133 6.44568 80.2995 10.2056C80.68 10.5413 80.9934 10.9442 80.5905 11.4142C80.1875 11.8842 79.7398 11.6156 79.3593 11.2799C74.9492 7.3409 69.7332 5.70711 63.868 5.72949C51.0183 5.77425 38.1686 5.72949 25.3189 5.75187C16.745 5.75187 9.69333 10.7204 6.76073 18.7775C6.02199 20.7917 5.73096 22.8955 5.73096 25.0441C5.73096 38.6963 5.70858 52.3485 5.73096 66.0008C5.75335 75.1545 11.9096 82.8534 20.8641 84.8901C22.2968 85.2258 23.7966 85.3153 25.2741 85.3153C38.773 85.3377 52.2943 85.3377 65.7932 85.3377C75.0835 85.3377 82.8067 79.2502 84.8663 70.2083C85.2021 68.776 85.2916 67.2765 85.2916 65.7993C85.3364 59.5551 85.314 53.3109 85.314 47.0667C85.314 46.8205 85.2468 46.5519 85.3364 46.3729C85.4931 46.0819 85.7617 45.8357 86.008 45.5895C86.2542 45.8581 86.5228 46.1267 86.7243 46.4176C86.8139 46.5295 86.7467 46.7533 86.7467 46.9324C86.7467 53.2661 86.7467 59.5999 86.7467 65.9336C86.7243 75.8259 80.0308 84.2187 70.36 86.3225C68.9049 86.6358 67.3602 86.7477 65.8604 86.7477C52.2943 86.7701 38.7283 86.7701 25.1622 86.7701C15.2451 86.7701 6.91743 80.123 4.74597 70.4322C4.41018 68.955 4.32063 67.3884 4.29825 65.8441C4.25347 59.018 4.27586 52.2366 4.27586 45.4553Z" fill="#35BCF4"/>
<path d="M30.9155 40.7777C31.0274 39.032 31.7885 37.7115 33.0646 36.6597C33.7585 36.0778 34.542 35.563 35.2136 34.9587C36.5792 33.7054 36.8478 32.4521 35.9524 30.8183C34.9226 28.9607 33.8481 27.1031 32.5944 25.4022C31.2513 23.6117 29.6842 21.9779 28.162 20.3217C27.0427 19.1132 25.5876 18.7775 24.0205 19.2475C21.1551 20.1203 18.6926 21.5527 17.2823 24.3279C15.9615 26.924 16.2749 29.565 17.3494 32.1388C23.1698 46.1267 32.4154 57.2723 45.2203 65.4189C48.8916 67.7688 52.8092 69.6488 56.7044 71.5512C60.3758 73.364 63.5098 72.5807 66.5096 70.2531C68.2109 68.9326 69.5989 67.3436 70.4496 65.307C71.0988 63.7627 71.1659 62.2184 69.8451 61.0546C66.6215 58.1675 63.1964 55.5266 59.3012 53.5795C57.0402 52.4381 54.9583 53.0871 53.3913 55.0566C53.2345 55.258 53.0555 55.4818 52.8988 55.6833C50.9064 58.257 48.8916 58.7718 45.8919 57.429C42.8697 56.0637 40.0938 54.3404 37.6761 52.08C37.2956 51.7219 36.8702 51.3414 37.3403 50.8266C37.8104 50.3119 38.2582 50.67 38.6387 51.0281C40.9221 53.1542 43.4965 54.8328 46.3396 56.0413C47.235 56.4218 48.2648 56.6232 49.2498 56.6456C50.2572 56.668 50.9511 55.9294 51.5332 55.1461C52.4734 53.8704 53.4808 52.6842 55.0031 52.0576C57.0402 51.2071 59.055 51.5652 60.7787 52.7066C64.0247 54.8328 67.1812 57.0709 70.2257 59.4656C72.7106 61.4351 72.9792 63.8746 71.2331 66.9408C69.2183 70.4769 66.2186 72.8716 62.2338 73.9459C60.3758 74.4383 58.6296 73.9012 56.973 73.2074C48.1976 69.4698 40.1834 64.5236 33.2213 57.9213C26.1248 51.1847 20.6626 43.3067 16.7674 34.3544C16.0958 32.7878 15.4242 31.154 15.178 29.4978C14.4616 24.8426 16.6778 20.9932 20.9984 18.8894C22.543 18.1284 24.1324 17.4794 25.9233 17.6584C27.759 17.8375 28.9903 19.0013 30.1543 20.2098C32.9974 23.1641 35.4599 26.4093 37.2284 30.1469C38.4149 32.6535 37.9 34.7797 35.6837 36.4806C35.1465 36.8835 34.5868 37.2863 34.0495 37.7115C32.5497 38.9201 32.1467 40.4196 32.7959 42.4115C32.9078 42.7472 33.1317 43.0829 33.1541 43.3962C33.1541 43.7096 32.9526 44.0453 32.8407 44.381C32.5049 44.2243 31.99 44.1348 31.8781 43.8886C31.4751 42.8815 31.2065 41.8296 30.9155 40.7777Z" fill="#35BCF4"/>
<path d="M64.8753 40.7999C64.8753 41.2475 64.8977 41.6951 64.8753 42.1203C64.8081 43.4856 64.0694 44.2241 62.771 44.2465C61.5174 44.2689 60.7786 43.5975 60.6219 42.2546C60.3533 39.8375 59.8608 37.4651 58.8982 35.2271C57.6893 32.4295 55.6298 30.5271 52.7867 29.5424C50.7048 28.8262 48.5333 28.3338 46.3843 27.7743C44.9963 27.4162 44.3919 26.7 44.5486 25.4019C44.6829 24.1039 45.4664 23.3653 46.8096 23.4324C56.1447 23.7681 63.8455 30.5495 64.8529 39.0989C64.9201 39.6585 64.8529 40.218 64.8529 40.7775C64.8529 40.7999 64.8529 40.7999 64.8753 40.7999ZM63.4426 40.7104C63.465 40.7104 63.465 40.7104 63.4426 40.7104C63.4426 40.218 63.4426 39.7032 63.3754 39.2108C63.3306 38.7185 63.2411 38.2037 63.1292 37.7337C61.8979 32.6533 58.7415 29.1171 54.1971 26.7672C51.936 25.6034 49.4736 25.0662 46.9439 24.9096C46.6529 24.8872 46.2499 25.0438 46.0485 25.2677C45.9141 25.4243 45.8918 25.9391 46.0261 26.0734C46.2947 26.3196 46.6977 26.4091 47.0558 26.521C49.3169 27.17 51.645 27.6624 53.8389 28.4905C56.7267 29.5648 58.8086 31.6238 60.0846 34.4661C61.1592 36.8385 61.6517 39.3451 61.9651 41.9189C62.0322 42.4337 62.077 42.8813 62.7486 42.8365C63.4202 42.7918 63.4426 42.3218 63.4202 41.807C63.4426 41.4265 63.4426 41.0684 63.4426 40.7104Z" fill="#35BCF4"/>
<path d="M58.3832 39.1214C58.316 39.6138 58.316 40.1062 58.2041 40.5538C57.9802 41.4938 57.3534 42.0533 56.4132 42.1428C55.4506 42.2547 54.6223 41.8519 54.2417 40.9566C54.0403 40.4866 53.9283 39.9495 53.8388 39.4124C53.4134 36.7714 51.9807 35.2272 49.3839 34.6676C48.8914 34.5557 48.3989 34.4662 47.9288 34.3096C46.9438 33.9962 46.4961 33.4143 46.4961 32.5191C46.4961 31.4896 47.0781 30.6391 48.0184 30.3706C49.5854 29.9006 51.0853 30.2139 52.4956 30.9301C55.2715 32.3177 57.1967 34.4662 58.0922 37.4652C58.2712 38.0248 58.2936 38.5843 58.3832 39.1214ZM56.9505 39.099C56.5923 35.8538 54.6895 33.571 51.7345 32.2058C50.8166 31.7805 49.3615 31.6239 48.6676 31.7134C48.2198 31.7582 47.996 32.1834 48.0407 32.4743C48.0855 32.8996 48.3765 32.9443 48.6452 33.0339C48.981 33.1458 49.2048 33.1905 49.4958 33.2577C52.9881 34.0186 54.7342 35.8538 55.3387 39.3676C55.4282 39.9271 55.361 40.8 56.2565 40.7328C57.1295 40.6433 56.8161 39.7928 56.9505 39.099Z" fill="#35BCF4"/>
<path d="M86.7242 36.0106C86.7242 37.6444 86.7242 39.2558 86.7242 40.8896C86.7242 41.4268 86.6347 41.9639 85.9631 41.9415C85.3363 41.9191 85.2915 41.4044 85.2915 40.8896C85.2915 37.5773 85.2915 34.2649 85.2915 30.975C85.2915 30.4602 85.3363 29.9454 85.9631 29.9231C86.6571 29.9007 86.7242 30.4154 86.7242 30.975C86.7242 32.6311 86.7242 34.3321 86.7242 36.0106Z" fill="#35BCF4"/>
<path d="M69.8898 46.6863C69.8451 46.6863 69.8003 46.6863 69.7555 46.6863C68.0094 46.5967 67.6065 45.7239 67.293 44.5601C67.2483 44.4034 67.2483 44.1796 67.2035 43.7096C66.5319 30.3483 58.7415 22.5598 44.7053 21.217C44.4143 21.2394 43.4741 21.217 42.8697 20.568C42.5786 20.2546 42.2652 19.6503 42.4443 18.6432C42.4667 18.4642 42.601 17.9718 43.1607 17.5466C44.1233 16.808 45.8694 16.6513 48.3095 17.0989C50.5929 17.5018 56.5029 18.9118 61.7636 23.0522C68.2333 28.1326 71.6136 35.4511 71.8151 44.8287C71.8151 44.9182 71.7927 45.6791 71.233 46.2163C70.9868 46.4177 70.5614 46.6863 69.8898 46.6863ZM68.5914 44.2244C68.8377 45.0749 68.9048 45.2987 69.8227 45.3434C70.0465 45.3434 70.2033 45.321 70.2928 45.2315C70.4271 45.0972 70.4495 44.8734 70.4495 44.8287C70.0242 23.9922 53.2121 19.3594 48.0633 18.4194C44.4367 17.7704 43.8323 18.688 43.7651 18.8446V18.8894L43.7427 18.867C43.698 19.1132 43.6756 19.4713 43.8323 19.6503C44.0338 19.8742 44.4815 19.8965 44.6382 19.8742H44.7053H44.7725C54.3538 20.7694 61.1816 24.5741 65.0768 31.1317C68.1661 36.324 68.4347 41.6506 68.5467 43.6425C68.5691 43.8663 68.5914 44.1349 68.5914 44.2244Z" fill="#35BCF4"/>
</g>
<defs>
<clipPath id="clip0_582_1283">
<rect width="91" height="91" fill="white"/>
</clipPath>
</defs>
</svg>
