<svg width="91" height="91" viewBox="0 0 91 91" fill="none" xmlns="http://www.w3.org/2000/svg">
<g clip-path="url(#clip0_582_1292)">
<path d="M69.4876 91.0005C53.4367 91.0005 37.3857 91.0005 21.3348 91.0005C19.5663 90.62 17.753 90.4186 16.0741 89.859C6.26889 86.5691 0.0455193 77.9301 0.023133 67.5902C0.000746802 52.8861 0.023133 38.1596 0.023133 23.4554C0.000746802 20.1431 0.538016 16.8979 1.99312 13.8989C6.33605 4.83468 13.5892 0.13473 23.6182 0.0675874C38.214 -0.0443162 52.8099 0.022826 67.4057 0.0675874C69.0846 0.0675874 70.8084 0.179491 72.4202 0.559963C81.7105 2.73089 87.6876 8.43798 90.262 17.6365C90.5978 18.845 90.7545 20.1207 90.9784 21.374C90.9784 37.4882 90.9784 53.5799 90.9784 69.694C90.8664 70.3207 90.7545 70.9697 90.6426 71.5964C89.0531 80.1234 84.2401 86.0767 76.2482 89.3443C74.1215 90.1947 71.7486 90.4633 69.4876 91.0005ZM45.4 89.5681C52.7203 89.5681 60.0406 89.5681 67.3385 89.5681C69.7786 89.5681 72.1963 89.2771 74.5021 88.4938C83.7252 85.3381 89.5233 77.2811 89.5456 67.5455C89.568 52.8637 89.5456 38.182 89.5456 23.4778C89.5456 21.1055 89.2322 18.7555 88.4711 16.495C85.337 7.27418 77.2556 1.47757 67.5176 1.45519C52.8322 1.43281 38.1469 1.45519 23.4391 1.45519C21.0662 1.45519 18.7156 1.76852 16.4546 2.52947C7.32104 5.64039 1.47824 13.6527 1.45585 23.2988C1.41108 38.0924 1.43347 52.9085 1.45585 67.7021C1.45585 72.3349 2.73187 76.5873 5.46299 80.3472C9.96262 86.5243 16.1188 89.5233 23.7301 89.5457C30.9609 89.5681 38.1916 89.5681 45.4 89.5681Z" fill="#35BCF4"/>
<path d="M4.27586 45.4553C4.27586 38.7411 4.27586 32.0045 4.27586 25.2902C4.27586 15.2637 10.835 7.00519 20.5954 4.76712C22.0505 4.43141 23.5952 4.31951 25.095 4.31951C38.5939 4.29713 52.1152 4.2076 65.6141 4.34189C71.1659 4.38665 76.1132 6.44568 80.2995 10.2056C80.68 10.5413 80.9934 10.9442 80.5905 11.4142C80.1875 11.8842 79.7398 11.6156 79.3592 11.2799C74.9492 7.3409 69.7332 5.70711 63.868 5.72949C51.0183 5.77425 38.1686 5.72949 25.3189 5.75187C16.745 5.75187 9.69333 10.7204 6.76073 18.7775C6.02199 20.7917 5.73096 22.8955 5.73096 25.0441C5.73096 38.6963 5.70858 52.3485 5.73096 66.0008C5.75335 75.1545 11.9096 82.8534 20.864 84.8901C22.2968 85.2258 23.7966 85.3153 25.2741 85.3153C38.773 85.3377 52.2943 85.3377 65.7932 85.3377C75.0835 85.3377 82.8067 79.2502 84.8663 70.2084C85.202 68.776 85.2916 67.2765 85.2916 65.7993C85.3364 59.5551 85.314 53.3109 85.314 47.0667C85.314 46.8205 85.2468 46.5519 85.3364 46.3729C85.4931 46.0819 85.7617 45.8357 86.008 45.5896C86.2542 45.8581 86.5228 46.1267 86.7243 46.4176C86.8139 46.5295 86.7467 46.7533 86.7467 46.9324C86.7467 53.2661 86.7467 59.5999 86.7467 65.9336C86.7243 75.8259 80.0308 84.2187 70.36 86.3225C68.9049 86.6358 67.3602 86.7477 65.8604 86.7477C52.2943 86.7701 38.7283 86.7701 25.1622 86.7701C15.2451 86.7701 6.91743 80.123 4.74597 70.4322C4.41018 68.955 4.32063 67.3884 4.29825 65.8441C4.25347 59.018 4.27586 52.2366 4.27586 45.4553Z" fill="#35BCF4"/>
<path d="M86.7242 36.0106C86.7242 37.6444 86.7242 39.2558 86.7242 40.8896C86.7242 41.4268 86.6347 41.9639 85.9631 41.9415C85.3363 41.9191 85.2915 41.4044 85.2915 40.8896C85.2915 37.5773 85.2915 34.2649 85.2915 30.975C85.2915 30.4602 85.3363 29.9454 85.9631 29.9231C86.6571 29.9007 86.7242 30.4154 86.7242 30.975C86.7242 32.6311 86.7242 34.3321 86.7242 36.0106Z" fill="#35BCF4"/>
<path d="M35.4373 64.0314C34.9448 64.0314 34.5419 63.7404 34.3628 63.2704L34.3404 63.2033L30.8929 48.0292C30.5571 46.9997 30.9825 45.8806 31.9451 45.3659L63.241 29.0279C63.7335 28.7594 64.338 28.8937 64.6738 29.3413C65.0095 29.7889 64.9648 30.4155 64.5618 30.796L46.0932 49.0811C46.026 49.1482 39.7355 54.7881 36.4671 63.3376C36.3104 63.7628 35.9074 64.0314 35.4373 64.0314ZM62.5694 30.8855L32.5719 46.552C32.1913 46.7535 32.0122 47.2235 32.1689 47.6263L32.1913 47.6935L35.5045 62.1514C38.8848 53.8258 44.7948 48.4544 45.1977 48.0963L62.5694 30.8855Z" fill="#35BCF4"/>
<path d="M60.6442 73.1627C59.413 73.1627 58.025 72.6255 56.5028 71.5736L44.1008 63.069L38.258 68.8208C37.9894 69.1118 35.9298 71.1708 33.9151 70.7232C32.8405 70.477 32.0346 69.6041 31.5421 68.1046C29.9975 63.4718 26.6619 54.4524 26.6172 54.3629L26.5948 54.3181C26.5948 54.2957 25.8113 51.6772 23.8413 51.6772H23.8189C21.0654 51.6772 13.2974 49.6405 11.1931 45.8134C10.8125 45.0973 10.7453 44.2468 11.014 43.4635C11.305 42.6801 11.9094 42.0535 12.6929 41.7401L64.92 21.0156C65.7035 20.6351 71.5463 17.8823 74.255 20.3442C76.7175 22.5599 76.337 24.0594 75.0833 29.095C74.9042 29.856 74.6804 30.7065 74.4565 31.6464C72.7552 38.7411 64.6514 69.5146 64.5618 69.8279C64.5394 69.9175 63.9798 72.1555 61.9874 72.9165C61.5621 73.0732 61.1143 73.1627 60.6442 73.1627ZM44.1008 61.7261C44.3694 61.7261 44.6381 61.7933 44.8619 61.9499L57.2415 70.4322C58.9876 71.6408 60.4204 72.0436 61.4949 71.6408C62.8381 71.1484 63.2634 69.4922 63.2634 69.4699C63.353 69.1565 71.4568 38.383 73.1357 31.3107C73.3596 30.3484 73.5835 29.4979 73.7625 28.7369C75.0386 23.6341 75.1281 22.918 73.3372 21.3065C71.5687 19.7175 67.0691 21.4185 65.4796 22.2018L65.4349 22.2242L13.2078 42.9935C12.7825 43.1501 12.4467 43.5082 12.3124 43.9335C12.1557 44.3587 12.2004 44.7839 12.4019 45.1644C14.0361 48.1634 20.8863 50.3343 23.8413 50.3343C23.8637 50.3343 23.8637 50.3343 23.886 50.3343C26.7739 50.3343 27.826 53.5572 27.9156 53.9376C28.0946 54.43 31.3183 63.1585 32.8405 67.7018C33.1763 68.7089 33.6464 69.2908 34.2285 69.4251C35.3254 69.6713 36.8253 68.418 37.3178 67.9032L43.183 62.129C43.4292 61.8604 43.765 61.7261 44.1008 61.7261Z" fill="#35BCF4"/>
</g>
<defs>
<clipPath id="clip0_582_1292">
<rect width="91" height="91" fill="white"/>
</clipPath>
</defs>
</svg>
